<svg version="1.1" id="Capa_1" xmlns="http://www.w3.org/2000/svg" xmlns:xlink="http://www.w3.org/1999/xlink" x="0px" y="0px" viewBox="0 0 25 25" style="enable-background:new 0 0 112.196 112.196;" xml:space="preserve" width="25" height="25"><g><path style="fill:#007AB9;" cx="56.098" cy="56.097" r="56.098" d="M25 12.5A12.5 12.5 0 0 1 12.5 25A12.5 12.5 0 0 1 0 12.5A12.5 12.5 0 0 1 25 12.5z"/><g><path style="fill:#F1F2F2;" d="M19.969 13.506v5.153H16.981V13.851c0 -1.207 -0.431 -2.032 -1.513 -2.032 -0.826 0 -1.316 0.555 -1.533 1.093 -0.079 0.192 -0.099 0.459 -0.099 0.728v5.019h-2.988s0.04 -8.143 0 -8.986h2.988v1.273c-0.006 0.01 -0.014 0.02 -0.02 0.029h0.02v-0.029c0.397 -0.611 1.105 -1.484 2.693 -1.484 1.966 0 3.44 1.284 3.44 4.044zm-12.246 -8.165c-1.022 0 -1.691 0.671 -1.691 1.552 0 0.863 0.649 1.553 1.652 1.553h0.019c1.042 0 1.69 -0.69 1.69 -1.553 -0.02 -0.881 -0.648 -1.552 -1.67 -1.552zm-1.513 13.318H9.196v-8.987H6.209v8.987z"/></g></g></svg>